<?xml version="1.0" encoding="utf-8"?>
<!-- Generator: Adobe Illustrator 27.5.0, SVG Export Plug-In . SVG Version: 6.00 Build 0)  -->
<svg version="1.1" xmlns="http://www.w3.org/2000/svg" xmlns:xlink="http://www.w3.org/1999/xlink" x="0px" y="0px"
	 viewBox="0 0 500 500" style="enable-background:new 0 0 500 500;" xml:space="preserve">
<g id="BACKGROUND">
	<rect y="0" style="fill:#FFFFFF;" width="500" height="500"/>
</g>
<g id="OBJECTS">
	<path style="fill-rule:evenodd;clip-rule:evenodd;fill:#0F0B0D;" d="M39.176,54.422c1.905,0.261,5.102,1.837,7.268,3.583
		c1.44,1.157,4.297,3.957,5.59,5.488c3.798,4.467,6.123,9.105,6.916,13.753c0.442,2.653,0.465,5.42,0.068,8.991
		c-0.386,3.413-0.34,6.996,0.113,9.048c0.499,2.313,1.859,5.374,3.662,8.288c2.46,3.946,3.231,4.66,7.109,6.599
		c1.928,0.964,2.925,1.576,7.699,4.694c1.621,1.066,3.299,2.143,3.742,2.392c0.431,0.261,1.633,1.009,2.665,1.667
		c2.37,1.508,3.492,2.075,5.034,2.562c0.748,0.238,1.349,0.499,1.531,0.669c0.283,0.261,0.476,0.295,3.753,0.624
		c7.937,0.794,11.747,0.907,14.91,0.408c5.556-0.862,7.37-1.02,10.409-0.93c3.526,0.102,10.012,0.952,15.896,2.064
		c5.182,0.986,12.914,2.132,17.121,2.551c1.304,0.125,3.424,0.363,4.705,0.51s2.982,0.329,3.798,0.397
		c0.805,0.068,2.415,0.215,3.572,0.34c4.184,0.431,4.411,0.42,7.54-0.17c2.744-0.522,4.104-0.51,9.604,0.113
		c2.268,0.249,9.445,1.327,11.316,1.701c3.742,0.737,9.388,0.714,16.1-0.068c3.243-0.374,3.549-0.465,7.54-2.211
		c3.73-1.621,5.431-2.075,7.778-2.086c1.757,0,5.987-0.442,7.189-0.76c1.383-0.351,1.791-0.624,4.014-2.801
		c2.302-2.245,3.662-3.322,5.068-4.048c1.157-0.59,1.871-0.692,2.256-0.329c0.147,0.136,0.306,0.397,0.34,0.567
		c0.091,0.42-0.295,2.132-0.964,4.263c-0.714,2.245-0.907,3.277-0.907,4.751c0,0.873,0.045,1.202,0.159,1.304
		c0.091,0.068,0.329,0.624,0.51,1.225c0.408,1.293,1.134,2.63,2.313,4.241c0.93,1.281,1.701,2.109,3.061,3.299
		c1.372,1.213,1.735,1.984,2.404,5.193c0.385,1.814,0.42,1.916,1.406,3.855c1.122,2.2,1.61,3.39,1.894,4.581
		c0.317,1.349,0.057,2.914-0.669,3.991c-0.306,0.465-0.522,0.624-1.474,1.088c-1.27,0.624-1.723,1.043-2.687,2.46
		c-1.043,1.531-1.689,1.848-4.093,2.03c-0.918,0.068-1.814,0.102-1.984,0.068c-0.181-0.034-1.531-0.113-2.993-0.17
		c-3.98-0.159-5.499-0.351-8.334-1.032c-1.542-0.374-2.109-0.397-3.197-0.159c-0.975,0.227-4.15,1.349-4.751,1.689
		c-0.646,0.363-0.975,1.032-1.043,2.109c-0.068,1.179,0.17,2.268,1.111,5.159c1.009,3.095,1.247,4.309,1.474,7.563
		c0.057,0.918,0.113,2.154,0.113,2.744c0,1.315,0.283,3.311,0.59,4.127c0.125,0.329,0.703,1.304,1.281,2.166
		c0.578,0.862,1.474,2.245,1.984,3.084c2.075,3.39,3.288,4.864,5.238,6.349c1.996,1.519,3.197,2.551,4.139,3.549
		c1.02,1.066,3.163,3.742,4.513,5.624c1.417,1.984,3.957,5.374,4.569,6.123c0.952,1.145,2.562,2.733,4.161,4.127
		c2.449,2.12,2.71,2.324,4.002,3.084c2.676,1.587,3.129,1.905,4.388,3.163c1.304,1.304,1.769,1.996,2.052,3.05
		c0.193,0.692,0.193,1.009,0.034,1.565c-0.159,0.601-1.191,1.678-2.018,2.12c-1.871,0.986-4.989,1.825-6.826,1.825
		c-1.247,0-2.971-0.272-3.674-0.567c-2.177-0.93-5.556-4.354-8.628-8.753c-1.962-2.789-3.39-4.263-8.311-8.583
		c-2.12-1.871-3.968-3.118-6.361-4.32c-1.644-0.828-2.914-1.599-4.921-2.993c-2.245-1.565-3.685-2.789-6.644-5.681
		c-1.281-1.259-2.812-2.653-3.402-3.118c-0.59-0.465-1.531-1.225-2.075-1.678c-1.417-1.179-2.585-1.701-6.202-2.733
		c-5.465-1.576-6.916-2.007-8.277-2.449c-1.916-0.612-3.436-0.918-5.59-1.077c-2.052-0.159-3.424-0.034-5.567,0.499
		c-2.959,0.748-7.018,3.027-9.048,5.08c-1.122,1.145-1.814,2.132-3.231,4.683c-1.145,2.052-1.712,3.333-2.075,4.649
		c-0.283,1.009-1.791,5.136-2.438,6.633c-0.227,0.533-0.771,1.655-1.213,2.494c-1.417,2.733-2.46,5.783-2.551,7.54
		c-0.057,0.85-0.034,0.93,0.272,1.372c0.17,0.249,0.873,0.964,1.565,1.587c3.095,2.778,3.504,3.322,3.504,4.637
		c0,1.168-0.374,1.735-1.429,2.211c-1.27,0.556-4.637,0.771-6.372,0.397c-0.986-0.204-3.764-1.304-4.705-1.859
		c-1.565-0.93-2.562-1.95-3.186-3.231c-0.624-1.327-0.726-1.928-0.726-4.49c0-2.075,0.034-2.494,0.317-3.912
		c0.17-0.873,0.431-2.381,0.578-3.345c0.249-1.644,0.771-3.628,1.293-4.966c0.351-0.896,0.556-1.78,0.748-3.367
		c0.102-0.816,0.442-2.676,0.748-4.139c0.816-3.9,0.907-5.329,0.544-8.844c-0.057-0.59-0.181-2.041-0.272-3.22
		c-0.102-1.485-0.204-2.177-0.306-2.245c-0.351-0.238-1.519,0-3.356,0.692c-3.447,1.293-5.408,1.508-15.329,1.712
		c-3.526,0.079-5.907,0.181-7.517,0.34c-1.293,0.125-3.311,0.272-4.479,0.34c-2.982,0.159-4.944,0.42-6.701,0.862
		c-2.744,0.692-4.297,1.542-8.084,4.388c-4.932,3.696-8.458,7.007-11.497,10.76c-2.177,2.699-2.347,3.039-2.358,4.683l-0.011,1.134
		l0.68,1.27c0.703,1.338,2.222,3.47,3.197,4.479c0.839,0.884,5.204,4.966,5.987,5.612c1.009,0.828,1.111,0.873,3.073,1.497
		c3.299,1.054,5.522,2.381,6.213,3.742c0.295,0.567,0.635,1.973,0.635,2.619c0,1.485-0.986,2.041-4.309,2.449
		c-1.678,0.204-2.279,0.181-5.272-0.17c-2.2-0.261-3.265-0.499-4.875-1.088c-2.937-1.054-5.125-2.483-7.257-4.751
		c-0.771-0.816-1.996-2.2-2.721-3.073c-2.098-2.494-3.934-4.388-5.783-5.964c-0.941-0.794-2.188-1.859-2.778-2.37
		s-1.825-1.531-2.733-2.268c-2.449-1.984-2.744-2.415-2.733-4.025c0.011-1.485,0.703-3.061,2.302-5.193
		c1.463-1.973,1.962-3.129,2.154-5.057c0.193-1.871,0.068-3.946-0.397-6.191c-0.873-4.252-1.202-5.612-1.372-5.612
		c-0.374,0-3.243,1.848-4.354,2.801c-1.293,1.111-2.381,1.825-3.345,2.2c-1.168,0.454-3.367,0.952-5.567,1.281
		c-6.826,1.02-8.583,1.349-11.078,2.064c-2.676,0.771-5,1.791-6.894,3.05c-1.542,1.032-2.619,2.234-6.576,7.427
		c-1.395,1.825-3.787,6.247-4.433,8.164c-0.329,0.998-0.363,1.247-0.442,3.288c-0.102,2.415-0.329,3.549-1.02,5.272
		c-0.578,1.463-1.882,3.22-2.767,3.742c-1.032,0.601-2.823,0.873-4.138,0.624c-0.862-0.159-2.869-0.952-3.492-1.372
		c-0.884-0.601-3.05-2.551-3.333-3.005c-0.578-0.941-0.102-2.313,1.678-4.887c1.61-2.336,1.848-2.755,2.12-3.9
		c0.091-0.34,0.374-1.383,0.635-2.313c0.261-0.941,0.646-2.336,0.85-3.118c0.204-0.782,0.703-2.517,1.111-3.855
		c0.839-2.778,1.553-5.363,1.882-6.86c0.839-3.742,1.44-6.021,1.996-7.653c1.088-3.152,2.075-5,3.209-6.021
		c1.315-1.179,4.603-2.517,8.073-3.277c3.56-0.782,5.919-1.996,9.207-4.751c1.837-1.542,4.978-5.488,6.032-7.585
		c0.533-1.054,1.395-3.322,1.825-4.785c0.782-2.71,1.077-4.547,1.304-8.209c0.159-2.438,0.34-3.481,0.896-5.046
		c0.612-1.735,1.417-3.163,3.039-5.306c3.209-4.286,3.821-5.885,3.379-8.878c-0.238-1.621-1.032-3.866-1.916-5.42
		c-0.34-0.601-0.714-1.304-0.816-1.553c-0.51-1.225-2.154-3.027-4.513-4.921c-0.805-0.646-1.723-1.406-2.041-1.689
		c-0.317-0.283-1.168-0.952-1.882-1.485c-0.714-0.522-1.814-1.383-2.438-1.894s-1.463-1.191-1.871-1.519
		c-1.02-0.794-3.333-2.971-4.082-3.832c-3.458-4.002-7.12-11.123-8.492-16.52c-0.635-2.506-0.737-3.47-0.748-6.633
		c0-2.903,0.011-3.073,0.363-5.046c0.476-2.642,0.714-5.068,0.794-8.141c0.068-2.653-0.023-3.81-0.442-5.182
		c-0.669-2.188-1.905-4.32-4.184-7.166c-1.769-2.211-2.971-4.717-2.971-6.213C34.539,55.25,36.546,54.06,39.176,54.422
		L39.176,54.422z"/>
	<path style="fill-rule:evenodd;clip-rule:evenodd;fill:#0F0B0D;" d="M429.296,14.777c-0.656,0.342-1.353,1.066-3.279,3.47
		c-0.997,1.243-2.323,2.801-2.937,3.484c-0.628,0.669-1.544,1.749-2.036,2.391c-1.544,1.995-4.044,4.427-6.777,6.626
		c-4.604,3.689-6.9,6.462-10.206,12.364c-1.872,3.334-2.377,4.536-2.76,6.544c-0.246,1.366-0.697,2.336-2.063,4.618
		c-2.049,3.375-2.91,5.192-4.208,8.99c-1.366,3.976-2.705,7.473-4.358,11.326c-2.5,5.848-2.924,7.692-2.801,12.023
		c0.123,3.962,1.462,14.004,2.432,18.116c0.533,2.295,1.148,3.921,2.555,6.695c2.896,5.711,2.91,5.82,2.76,13.116
		c-0.055,2.282-0.014,2.732,0.314,4.645c0.383,2.159,0.56,2.924,1.585,6.353c0.82,2.76,1.134,3.593,2.637,7.173
		c1.53,3.634,1.667,3.88,2.036,3.784c0.15-0.041,0.273,0.014,0.314,0.164c1.421,4.918,1.776,6.981,2.022,11.517
		c0.109,2.377,0.123,3.416,0,4.399c-0.273,2.145-0.669,2.965-2.459,5.028c-1.066,1.23-1.79,2.473-2.131,3.662
		c-0.109,0.41-0.26,1.639-0.342,2.732c-0.109,1.817-0.164,2.09-0.669,3.416c-1.312,3.402-1.257,6.421,0.123,8.102
		c1.394,1.694,3.812,2.282,6.968,1.694c1.38-0.246,1.284-0.26,4.563,0.246c1.79,0.273,3.839,0.26,5.506-0.027
		c0.724-0.123,1.544-0.205,1.803-0.205c0.792,0.041,3.703,0.437,4.645,0.642c2.118,0.451,4.386,0.751,7.514,1.025
		c2.91,0.246,7.624,0.833,12.979,1.612c2.596,0.369,7.637,0.314,11.476-0.15c4.591-0.546,6.654-1.161,8.525-2.555
		c0.424-0.301,1.148-0.669,1.626-0.82c1.079-0.342,2.254-1.093,3.293-2.131c1.407-1.407,1.981-2.528,2.637-5.178
		c0.342-1.339,0.383-1.749,0.383-3.825c0-4.755-0.997-8.758-4.276-17.365c-1.639-4.276-2.213-5.984-2.773-8.32
		c-0.506-2.049-0.533-2.582-0.273-5.192c0.232-2.309,0.137-4.973-0.246-7.104c-0.164-0.874-0.287-2.118-0.287-2.978
		c0-2.705-0.642-4.877-2.61-8.853c-1.68-3.388-2.842-5.451-4.386-7.76c-2.049-3.047-3.689-5.766-4.181-6.913
		c-0.26-0.615-0.997-3.17-1.667-5.807c-1.257-4.932-1.831-6.681-2.746-8.266c-1.189-2.036-2.405-3.498-6.23-7.473
		c-1.202-1.23-2.282-2.473-2.405-2.746c-0.15-0.314-0.301-1.12-0.383-2.104c-0.178-2.118-0.533-3.825-1.271-6.134
		c-0.642-1.981-0.902-3.17-0.902-4.03c0-0.287-0.055-0.56-0.137-0.601c-0.068-0.041-0.137-0.628-0.137-1.284
		c0-1.025,0.041-1.243,0.273-1.448c0.26-0.232,0.328-0.232,1.803,0.082c1.202,0.246,1.995,0.314,3.525,0.314
		c2.268,0.014,3.088-0.164,4.864-1.011c1.148-0.547,1.68-1.038,3.101-2.869c0.314-0.41,0.915-1.011,1.325-1.339
		c1.776-1.407,2.446-2.09,2.801-2.828c0.328-0.656,0.369-0.861,0.314-1.803c-0.096-1.558-0.342-2.118-3.019-6.722
		c-0.984-1.694-2.008-3.989-2.35-5.274c-0.123-0.451-0.273-1.612-0.342-2.596c-0.068-0.97-0.232-2.268-0.355-2.869
		c-0.437-2.241-1.79-4.263-4.782-7.173c-1.243-1.202-1.899-1.721-2.801-2.213c-0.656-0.355-1.216-0.751-1.271-0.874
		c-0.191-0.506-0.041-1.079,0.628-2.336c0.669-1.284,2.159-5.164,2.159-5.643c0-0.273-0.56-0.82-0.847-0.82
		c-0.465,0-2.705,0.738-3.784,1.243c-1.202,0.56-2.008,1.107-3.361,2.295c-0.451,0.396-0.929,0.697-1.093,0.697
		c-0.656,0-0.669-0.109-0.779-5.793c-0.096-5.738-0.219-6.845-0.847-8.211c-0.219-0.492-0.465-0.806-0.751-0.943
		C429.965,14.504,429.815,14.504,429.296,14.777z M465.297,185.612c0,0.068-0.068,0.137-0.15,0.137
		c-0.068,0-0.096-0.068-0.055-0.137c0.041-0.082,0.109-0.137,0.15-0.137C465.269,185.475,465.297,185.53,465.297,185.612z"/>
	<path style="fill-rule:evenodd;clip-rule:evenodd;fill:#0F0B0D;" d="M349.043,67.259c0.35,0.14,0.444,0.385,0.782,2.043
		c0.152,0.77,0.49,2.393,0.747,3.618c0.852,4.108,1.039,6.163,0.724,7.995c-0.233,1.412-0.163,2.614,0.268,4.388
		c0.607,2.439,0.77,3.466,0.77,4.657c0,2.288-0.397,4.062-1.459,6.478c-0.934,2.148-1.517,3.828-1.751,5.054
		c-0.198,1.074-0.759,5.696-1.05,8.544c-0.093,1.027-0.268,2.323-0.362,2.883c-0.152,0.84-0.175,1.646-0.128,4.377
		c0.047,2.906,0.093,3.618,0.362,5.287c0.28,1.716,0.327,2.404,0.409,6.303c0.093,3.933,0.117,4.447,0.327,5.019
		c0.514,1.401,1.459,3.163,2.323,4.33c2.253,3.023,4.459,6.489,7.762,12.185c1.307,2.264,6.034,9.454,7.388,11.263
		c0.467,0.607,1.576,2.078,2.486,3.268c0.899,1.19,2.148,2.941,2.778,3.91c0.63,0.957,2.159,3.268,3.385,5.135
		c3.887,5.859,5.871,8.905,7.621,11.672c0.934,1.471,2.463,3.84,3.408,5.252c2.848,4.283,3.817,5.976,7.295,12.78
		c3.221,6.291,5.509,10.469,6.723,12.267c1.354,2.007,3.653,4.272,5.731,5.649c0.537,0.35,0.712,0.409,0.84,0.303
		s0.315-0.105,0.852,0.035c0.373,0.093,1.984,0.385,3.595,0.654c6.945,1.12,10.516,1.856,14.298,2.93
		c4.89,1.389,10.084,2.171,16.165,2.439c1.541,0.07,3.618,0.175,4.61,0.233c2.778,0.175,5.299,0.14,8.182-0.117
		c3.221-0.28,4.47-0.595,6.618-1.681c2.521-1.272,7.376-5.17,9.08-7.283c1.914-2.393,3.035-3.326,4.517-3.782
		c1.552-0.467,3.023-0.163,4.225,0.875c1.319,1.132,1.459,3.198,0.467,6.664c-0.7,2.416-1.459,3.677-3.011,4.96
		c-2.498,2.078-3.186,2.673-4.517,3.968c-2.486,2.416-6.804,5.579-9.816,7.178c-2.218,1.179-5.556,1.914-9.092,2.019
		c-2.778,0.082-7.61-0.128-9.921-0.432c-0.992-0.128-3.093-0.292-4.669-0.35c-1.576-0.07-3.49-0.198-4.26-0.292
		c-1.494-0.198-1.891-0.28-6.128-1.272c-5.03-1.179-6.022-1.319-12.372-1.809c-0.864-0.07-2.007-0.233-2.544-0.362
		c-1.05-0.257-1.949-0.292-2.591-0.128c-0.222,0.07-0.63,0.175-0.91,0.245c-0.385,0.105-0.49,0.175-0.49,0.385
		c0,0.642-0.969,3.712-2.439,7.727c-0.338,0.899-0.84,2.288-1.132,3.093c-0.654,1.762-1.564,3.63-2.789,5.661
		c-1.331,2.229-2.766,4.937-3.478,6.594c-0.794,1.821-1.039,2.311-2.311,4.552c-0.56,1.004-1.085,2.066-1.167,2.381
		c-0.14,0.572-0.105,1.342,0.257,4.505c0.14,1.331,0.77,3.595,1.471,5.369c0.327,0.805,0.7,1.961,0.84,2.568
		c0.14,0.607,0.432,1.844,0.654,2.743c0.514,2.113,0.665,3.268,0.677,5.135c0.012,1.155-0.035,1.692-0.198,2.218
		c-0.56,1.879-1.646,3.151-3.385,3.98c-1.459,0.689-3.677,1.412-6.548,2.124c-2.428,0.607-4.108,0.864-7.178,1.074
		c-0.992,0.07-2.649,0.268-3.677,0.432c-3.163,0.525-6.723,0.397-11.03-0.409c-0.992-0.187-2.183-0.408-2.626-0.479
		c-1.05-0.175-2.019-0.654-2.358-1.167c-0.49-0.724-0.315-2.381,0.397-3.805c0.409-0.782,1.587-1.914,2.568-2.428
		c1.424-0.747,1.786-0.794,6.046-0.899c4.937-0.117,4.867-0.105,7.82-2.043c0.49-0.327,1.05-0.689,1.261-0.817
		c0.91-0.572,1.004-1.727,0.257-3.198c-0.479-0.957-2.031-3.466-4.26-6.886c-3.105-4.774-4.388-7.505-6.011-12.792
		c-0.233-0.77-0.455-1.471-0.479-1.564c-0.023-0.093-0.07-0.14-0.093-0.117s-0.572,0.712-1.225,1.541
		c-0.654,0.817-1.494,1.797-1.856,2.159c-0.91,0.91-3.315,2.778-4.459,3.455c-0.514,0.303-1.074,0.735-1.237,0.945
		c-0.444,0.584-1.202,2.614-2.451,6.536c-0.619,1.926-1.424,4.342-1.797,5.369c-1.015,2.789-0.98,2.579-0.992,5.836
		c-0.012,3.128-0.093,3.758-0.712,5.171c-0.409,0.934-0.689,1.272-1.704,2.019c-1.576,1.167-2.346,1.482-4.435,1.797
		c-0.992,0.152-2.474,0.338-3.268,0.397c-0.805,0.07-1.984,0.21-2.614,0.315c-0.805,0.128-2.078,0.198-4.19,0.222
		c-2.673,0.035-4.96,0.21-6.104,0.467c-0.14,0.035-1.214,0.163-2.393,0.292c-5.812,0.607-9.267,1.074-10.773,1.459
		c-2.708,0.7-4.178,0.642-5.964-0.233c-1.249-0.619-1.832-1.459-1.972-2.836c-0.163-1.494,0.432-2.696,2.241-4.564
		c0.77-0.805,1.225-1.167,2.229-1.739c0.805-0.455,1.529-0.782,2.019-0.887c1.424-0.327,5.381-0.992,6.629-1.12
		c4.797-0.479,7.038-1.179,9.536-2.988c0.514-0.362,1.856-1.296,2.976-2.066c1.12-0.77,2.509-1.751,3.093-2.194
		c1.704-1.272,2.941-2.941,3.478-4.68c0.385-1.272,0.409-1.459,0.292-2.334c-0.163-1.237-0.899-7.797-1.202-10.831
		c-0.887-8.859-0.817-15.722,0.233-23.927c0.397-3.07,0.537-3.782,1.412-7.236c0.934-3.723,1.062-4.622,0.875-6.338
		c-0.187-1.704-0.432-2.883-0.689-3.198c-0.105-0.14-0.572-0.689-1.027-1.225c-2.241-2.638-6.945-9.057-9.15-12.512
		c-2.229-3.49-5.964-10.434-7.038-13.084c-0.584-1.424-1.564-4.318-2.649-7.762c-1.389-4.388-3.396-8.952-4.914-11.146
		c-0.315-0.455-1.179-1.529-1.926-2.393c-1.821-2.124-2.93-3.618-4.248-5.719c-0.607-0.98-2.183-3.408-3.501-5.416
		c-2.766-4.178-2.953-4.505-3.618-6.081c-0.268-0.642-0.899-2.113-1.401-3.268c-0.502-1.155-1.015-2.369-1.144-2.708
		c-0.28-0.735-3.466-5.567-4.855-7.353c-0.56-0.724-1.564-1.856-2.218-2.509c-1.214-1.214-1.844-1.704-6.664-5.17
		c-6.629-4.762-8.625-6.723-13.761-13.597c-3.478-4.657-4.178-5.766-6.303-9.991c-1.681-3.361-1.879-3.618-5.241-6.968
		c-3.035-3.046-3.98-4.132-4.972-5.742c-0.677-1.109-1.506-1.926-2.369-2.334c-0.945-0.444-3.07-1.226-3.513-1.307
		c-0.21-0.035-1.097,0.035-1.961,0.14c-1.984,0.257-2.941,0.257-3.571,0c-0.619-0.245-1.167-0.852-1.272-1.412
		c-0.14-0.759,0.023-2.159,0.397-3.256c0.619-1.867,0.63-1.809-0.794-4.015l-0.642-0.992v-1.05c0-1.634,0.467-2.451,1.972-3.478
		c0.373-0.257,1.179-0.934,1.809-1.506c1.307-1.226,1.926-1.552,3.408-1.867c1.214-0.257,2.323-0.222,3.77,0.093
		c0.584,0.128,1.027,0.152,1.576,0.093c1.436-0.175,1.902-0.128,2.731,0.257c1.459,0.689,2.416,1.832,3.607,4.365
		c0.794,1.646,1.249,2.253,2.054,2.661c0.619,0.315,1.529,1.155,1.914,1.762c0.187,0.292,0.49,1.05,0.689,1.692
		c0.502,1.657,0.98,3,1.331,3.677c0.35,0.677,0.84,1.19,2.836,2.953c2.101,1.856,3.922,4.167,6.349,8.018
		c3.653,5.801,6.594,8.975,9.956,10.714c0.957,0.49,1.716,0.444,3.163-0.233c0.642-0.303,1.856-0.77,2.684-1.039
		c2.556-0.817,3.233-1.202,4.995-2.895c1.319-1.272,1.692-1.552,2.719-2.101c0.654-0.338,1.272-0.677,1.366-0.759
		c0.152-0.105,0.058-0.362-0.7-1.867c-0.747-1.459-1.015-1.867-1.716-2.603c-0.829-0.852-0.852-0.864-1.809-1.085
		c-1.261-0.303-1.401-0.385-1.692-1.027c-0.21-0.467-0.257-0.77-0.257-1.937l-0.012-1.389l-0.455-0.21
		c-3.093-1.401-3.443-1.634-3.443-2.299c0.012-0.969,0.735-1.961,2.089-2.848c1.155-0.759,1.576-0.864,2.626-0.712
		c1.062,0.152,2.043,0.619,3.852,1.821c2.579,1.727,5.824,5.276,8.298,9.104c0.315,0.49,0.619,0.899,0.665,0.899
		c0.058,0,0.093-0.117,0.093-0.268c0-0.152,0.152-0.77,0.35-1.366c0.502-1.599,0.479-2.358-0.128-4.33
		c-0.549-1.797-0.642-1.984-1.214-2.673c-0.584-0.689-1.074-1.716-1.366-2.789c-0.175-0.689-0.233-1.226-0.222-2.428
		c0.012-1.284-0.023-1.611-0.222-2.043c-0.327-0.724-0.315-1.774,0.035-2.439c0.397-0.747,1.611-1.622,3.105-2.229
		c1.366-0.56,2.556-1.284,3.84-2.358c0.479-0.397,1.132-0.934,1.459-1.214c0.747-0.607,2.124-1.331,3.058-1.611
		c0.455-0.128,1.12-0.21,1.914-0.21l1.214-0.012l-0.07-1.307c-0.035-0.817,0-1.797,0.105-2.626c0.082-0.724,0.163-1.331,0.163-1.342
		c0-0.093,0.408-0.385,0.537-0.385c0.093,0,0.385,0.198,0.665,0.455c0.268,0.245,1.12,0.875,1.891,1.389
		c0.969,0.654,1.774,1.307,2.626,2.171c0.665,0.677,1.249,1.307,1.307,1.389c0.07,0.128,0.619,0.163,2.754,0.152l2.673-0.012
		l0.502-0.35c0.268-0.187,0.63-0.56,0.794-0.817c1.716-2.708,2.754-3.84,4.937-5.381c1.494-1.074,3.665-2.428,4.365-2.743
		C348.471,67.119,348.658,67.107,349.043,67.259L349.043,67.259z"/>
	<path style="fill-rule:evenodd;clip-rule:evenodd;fill:#0F0B0D;" d="M297.048,187.272c1.924,0.406,3.979,1.971,5.568,4.23
		c1.35,1.924,2.772,5.424,3.501,8.627c0.179,0.824,0.609,2.485,0.944,3.704c1.362,4.982,1.493,6.106,1.41,12.343
		c-0.06,4.887-0.06,4.923-0.98,8.388c-0.657,2.497-2.629,8.113-3.525,10.036c-0.179,0.394-0.478,1.063-0.657,1.494
		c-1.41,3.346-4.97,9.212-7.635,12.546c-2.007,2.521-4.636,4.887-8.603,7.754c-2.927,2.115-8.017,4.827-14.171,7.539
		c-7.766,3.441-11.924,6.189-13.454,8.913l-0.406,0.729l0.502,0.824c1.314,2.175,3.501,6.727,5.018,10.443
		c2.27,5.58,3.393,8.985,4.23,12.904c0.227,1.087,0.55,2.557,0.705,3.286c0.155,0.717,0.585,2.844,0.956,4.72
		c1.601,8.161,1.852,9.212,2.963,12.259c0.992,2.7,2.055,5.018,2.772,5.962c0.335,0.454,1.494,1.744,2.569,2.868
		c2.103,2.198,2.76,3.047,3.286,4.242c0.693,1.589,0.789,2.736,0.49,5.855c-0.311,3.083-0.335,4.528-0.191,8.794
		c0.119,3.608,0.108,4.624-0.048,7.348c-0.108,1.732-0.251,4.373-0.311,5.855c-0.119,2.975-0.394,4.708-0.908,5.795
		c-0.908,1.924-4.552,3.728-8.519,4.218c-2.402,0.299-4.445-0.621-5.09-2.294c-0.167-0.454-0.203-0.801-0.155-1.96
		c0.108-2.402,0.789-3.943,2.425-5.544c0.502-0.49,1.004-1.039,1.099-1.243c0.275-0.526,0.239-1.685-0.119-3.465
		c-0.179-0.86-0.454-2.461-0.633-3.573c-0.346-2.258-1.063-4.982-1.589-6.034c-0.609-1.195-1.804-2.88-2.33-3.262
		c-1.302-0.944-3.202-1.756-5.831-2.485c-4.182-1.159-10.084-3.429-13.119-5.042c-1.171-0.633-2.461-1.47-4.134-2.676
		c-0.538-0.394-2.043-1.482-3.346-2.426c-3.13-2.258-4.015-2.939-5.663-4.325c-1.577-1.314-2.282-2.055-2.868-2.963l-0.406-0.633
		l-0.872,4.337c-1.804,8.997-1.948,9.786-2.127,12.474c-0.263,3.811-0.502,5.377-1.087,6.99c-0.884,2.473-1.792,3.513-5.484,6.297
		c-5.162,3.883-6.404,4.779-7.396,5.413c-0.597,0.37-1.649,1.051-2.342,1.494c-1.29,0.848-6.942,3.776-8.423,4.373
		c-1.434,0.574-3.166,0.813-7.862,1.123c-2.748,0.179-3.573,0.143-4.959-0.203c-1.84-0.454-2.736-1.493-3.178-3.704
		c-0.263-1.255-0.239-2.187,0.06-3.154c0.311-0.992,0.645-1.338,1.971-2.043c1.183-0.633,1.9-0.813,4.027-1.063
		c2.175-0.251,3.334-0.585,5.401-1.589c1.912-0.932,3.095-1.78,4.66-3.322c1.529-1.505,2.246-2.366,3.644-4.337
		c0.681-0.956,1.458-2.007,1.732-2.33c0.729-0.86,0.896-1.255,0.896-2.103c0-1.028-0.514-2.688-1.84-5.998
		c-0.621-1.517-1.314-3.298-1.565-3.943c-0.239-0.645-0.765-1.936-1.159-2.868c-0.394-0.932-0.98-2.318-1.29-3.071
		c-0.454-1.075-0.621-1.374-0.801-1.362c-0.119,0.012-0.884,0.155-1.709,0.323c-6.56,1.35-7.444,1.458-9.857,1.326
		c-2.772-0.167-12.378-0.131-13.382,0.036c-1.207,0.215-1.983,0.466-2.378,0.789c-0.323,0.263-0.335,0.299-0.155,0.574
		c0.669,1.051,1.016,4.935,0.633,7.097c-0.203,1.123-0.705,3.334-1.028,4.54c-0.394,1.47-0.502,2.282-0.358,2.796
		c0.311,1.171,1.84,3.047,3.823,4.696c1.004,0.836,3.298,3.584,3.967,4.743c1.267,2.222,1.219,4.038-0.203,7.85
		c-0.98,2.617-1.709,4.182-2.39,5.126c-0.777,1.087-1.207,1.482-2.151,1.936c-0.765,0.37-0.908,0.406-1.613,0.346
		c-0.98-0.072-1.756-0.394-2.437-1.028c-1.111-1.028-1.577-2.318-1.744-4.839c-0.155-2.294-0.311-3.107-0.717-3.955
		c-0.37-0.765-1.123-1.434-3.262-2.927c-1.792-1.243-3.011-2.234-3.847-3.107c-1.075-1.135-2.39-2.784-2.939-3.692
		c-0.693-1.135-1.541-3.154-1.936-4.66l-0.37-1.374l0.024-4.242c0.06-7.742-0.227-9.069-2.222-10.132
		c-0.92-0.49-1.864-0.705-3.847-0.86c-0.884-0.072-2.39-0.215-3.346-0.323c-2.378-0.251-5.604-0.251-6.99,0
		c-0.597,0.108-1.434,0.203-1.888,0.203c-0.49,0-0.801,0.048-0.801,0.131c0,0.311-3.716,5.269-6.022,8.053
		c-1.864,2.234-3.357,4.218-4.648,6.141c-1.912,2.88-4.373,5.807-6.536,7.766c-1.541,1.41-4.636,3.943-5.902,4.827
		c-2.402,1.673-3.429,2.521-4.851,3.991c-0.872,0.896-1.721,1.9-2.031,2.402c-1.386,2.258-2.868,4.421-3.286,4.827
		c-0.968,0.932-2.079,1.29-4.05,1.29c-1.338,0-3.393,0.179-5.747,0.49c-3.525,0.478-4.528,0.406-6.225-0.43
		c-1.123-0.55-1.721-1.195-1.721-1.852c0-1.075,0.872-2.21,2.832-3.704c1.9-1.458,2.461-1.804,4.731-2.939
		c2.354-1.171,3.214-1.804,4.266-3.13c1.505-1.876,2.581-3.035,3.537-3.8c0.753-0.609,1.195-1.075,1.661-1.78
		c0.765-1.159,1.482-2.485,1.912-3.525c0.179-0.43,0.729-1.613,1.219-2.629c0.502-1.016,1.099-2.306,1.35-2.868
		c0.251-0.562,0.812-1.828,1.255-2.808c0.43-0.992,1.255-2.951,1.816-4.361c0.562-1.41,1.505-3.728,2.103-5.138
		c1.673-4.015,2.664-6.56,2.88-7.444c0.55-2.187,0.466-3.788-0.37-7.014c-0.299-1.147-0.645-2.545-0.765-3.107
		c-0.621-2.772-1.35-10.491-1.482-15.533c-0.131-4.827-0.382-6.966-1.099-9.021c-1.087-3.13-2.139-4.684-5.663-8.388
		c-0.908-0.956-1.135-1.302-1.876-2.748c-1.732-3.441-2.282-4.959-2.545-7.133c-0.239-1.971,0.048-5.998,0.562-8.017
		c0.275-1.075,0.944-2.808,1.732-4.493c0.717-1.541,1.111-2.832,0.968-3.19c-0.036-0.119-0.43-0.609-0.86-1.111
		c-1.004-1.159-1.446-2.007-1.9-3.573c-0.454-1.589-0.609-2.485-0.609-3.393c0.012-2.043,0.86-3.166,2.402-3.178
		c1.494,0,5.413,1.386,7.575,2.688c1.446,0.872,1.792,0.992,2.688,1.004c3.871,0.036,14.911-0.108,15.927-0.215
		c2.019-0.203,2.079-0.227,3.238-1.47c1.661-1.756,3.166-2.796,4.911-3.381c1.231-0.418,2.115-0.454,2.473-0.096
		c0.215,0.227,0.275,0.454,0.346,1.553c0.227,3.214,0.096,4.935-0.502,6.667c-0.454,1.302-0.167,2.712,1.326,6.631
		c0.502,1.35,1.016,2.712,1.123,3.047c0.358,1.135,0.836,3.525,1.087,5.46c0.06,0.49,0.119,0.574,0.335,0.574
		c0.143,0,0.741,0.155,1.338,0.358c1.541,0.502,5.675,1.183,7.253,1.195c0.442,0,1.84-0.131,3.107-0.299
		c7.037-0.896,10.957-0.669,19.965,1.135c4.504,0.908,9.379,1.29,13.609,1.075c2.652-0.143,3.943-0.311,6.536-0.836
		c3.728-0.777,7.635-1.434,10.945-1.852c1.9-0.239,4.086-0.538,4.839-0.657c0.753-0.131,3.31-0.454,5.675-0.717
		c2.366-0.263,5.377-0.609,6.691-0.777c4.791-0.609,11.96-0.705,14.099-0.191c2.222,0.538,4.588,1.422,6.715,2.509l2.103,1.087
		l1.147-1.111c0.633-0.609,1.446-1.326,1.816-1.601c1.004-0.741,3.596-2.378,4.947-3.118c0.657-0.358,1.673-0.932,2.27-1.278
		c0.585-0.346,1.804-1.016,2.688-1.494c3.429-1.852,4.05-2.21,5.413-3.19c0.789-0.55,1.971-1.326,2.629-1.732
		c1.971-1.183,7.229-4.827,8.698-6.022c1.075-0.872,5.902-5.807,7.133-7.276c1.983-2.366,3.262-4.564,4.743-8.125
		c0.872-2.103,1.075-2.939,1.565-6.285c0.418-2.951,0.502-5.795,0.239-8.388c-0.263-2.521-0.777-6.583-0.908-7.193
		c-0.358-1.613-1.219-7.563-1.326-9.128c-0.191-2.712-0.096-4.994,0.263-6.046c0.346-1.063,1.278-2.055,2.198-2.378
		C294.443,187.141,296.068,187.069,297.048,187.272z"/>
	<path style="fill-rule:evenodd;clip-rule:evenodd;fill:#0F0B0D;" d="M479.33,274.051c0.573,0.167,0.812,0.358,1.637,1.35
		c0.609,0.729,1.016,1.087,1.529,1.362c1.482,0.789,1.768,1.374,1.792,3.62c0.012,1.374,0.06,1.768,0.323,2.676
		c0.239,0.765,0.323,1.314,0.323,2.031c0,1.625-0.43,2.712-1.792,4.576c-0.777,1.051-1.016,1.517-1.302,2.617
		c-0.179,0.657-0.908,1.756-2.163,3.274c-1.494,1.792-2.33,3.011-2.951,4.266c-0.55,1.099-0.55,1.123-0.693,2.927
		c-0.131,1.756-0.155,1.912-0.872,3.979c-1.123,3.31-1.589,5.867-1.816,10.156c-0.287,5.281-0.466,6.285-2.509,13.86
		c-0.335,1.243-1.016,4.038-1.505,6.213c-1.852,8.173-3.489,13.728-5.568,18.818c-1.709,4.158-4.23,9.272-6.309,12.725
		c-1.529,2.569-2.187,3.907-2.569,5.257c-0.765,2.664-0.896,4.337-1.028,12.665c-0.048,3.871-0.131,7.265-0.167,7.527
		c-0.048,0.263-0.155,1.063-0.251,1.792c-0.263,1.912-0.693,3.764-1.482,6.333c-0.944,3.059-1.267,3.943-2.629,7.288
		c-1.804,4.409-2.163,5.663-2.629,9.32c-0.394,3.071-0.514,5.998-0.442,10.694c0.119,6.918,0.765,12.02,2.414,19.057
		c1.219,5.197,1.541,7.109,2.139,12.426c0.442,3.907,0.717,7.36,0.908,11.411c0.072,1.35,0.203,3.095,0.299,3.883
		c0.155,1.314,0.203,1.458,0.49,1.697c0.526,0.418,1.195,0.526,2.342,0.382c0.848-0.108,1.123-0.108,1.768,0.06
		c0.836,0.215,1.96,0.753,2.605,1.243c1.374,1.051,2.772,5.329,2.127,6.524c-0.227,0.418-0.741,0.789-1.446,1.039
		c-0.645,0.227-2.724,0.191-3.286-0.048c-0.311-0.131-0.55-0.155-0.956-0.084c-1.016,0.203-2.557,0.143-3.166-0.119
		c-0.693-0.299-0.872-0.299-2.031,0c-1.135,0.287-3.596,0.37-4.266,0.143c-0.657-0.239-2.294-2.019-2.975-3.262
		c-0.789-1.422-0.872-1.792-0.777-3.656c0.096-1.888,0.084-1.912-1.278-4.158c-1.147-1.876-1.673-2.963-2.927-6.094
		c-1.147-2.844-1.267-3.262-2.653-8.961c-1.601-6.607-1.685-7.038-1.792-9.2c-0.191-3.716-0.502-5.114-1.948-9.14
		c-0.49-1.35-1.278-3.596-1.756-4.994l-0.872-2.533l-0.944,1.338c-2.426,3.429-3.441,5.508-5.245,10.622
		c-2.115,5.986-2.21,6.285-2.975,8.949c-1.243,4.349-1.864,5.747-3.429,7.671c-0.43,0.526-1.063,1.505-1.41,2.175
		c-0.526,1.004-0.645,1.386-0.777,2.27c-0.191,1.386-0.096,2.736,0.299,4.074c0.167,0.585,0.382,1.35,0.478,1.685l0.179,0.609
		l1.278,0.072c0.753,0.048,1.816,0.203,2.545,0.382c0.836,0.203,1.744,0.335,2.748,0.382l1.494,0.072l1.314-0.574
		c2.414-1.039,3.357-0.872,4.576,0.765c0.55,0.729,0.896,1.051,1.804,1.649c1.924,1.267,2.091,1.494,2.939,4.098
		c0.538,1.661,0.585,2.509,0.179,3.441c-0.43,0.98-1.171,1.529-2.808,2.055c-0.801,0.263-1.016,0.275-5.377,0.287
		c-3.776,0.012-4.803,0.06-6.094,0.239c-1.494,0.227-1.649,0.227-4.361,0.024c-1.541-0.108-4.23-0.251-5.962-0.311
		c-1.733-0.072-3.262-0.143-3.405-0.179c-0.538-0.108-4.242-0.299-8.137-0.418c-2.234-0.06-5.413-0.167-7.049-0.239
		c-1.649-0.06-4.947-0.179-7.348-0.239c-6.01-0.179-9.833-0.502-11.877-1.016c-0.382-0.108-1.374-0.466-2.21-0.824
		c-0.824-0.346-2.163-0.86-2.963-1.123c-3.107-1.051-3.919-1.697-5.532-4.385c-0.55-0.92-1.625-2.664-2.39-3.883
		c-2.127-3.357-2.868-4.97-3.573-7.766c-0.526-2.079-0.765-4.528-0.777-7.946c-0.012-4.062,0.346-6.44,1.565-10.574
		c3.118-10.562,3.441-11.518,4.899-14.362c0.514-1.004,1.577-3.202,2.366-4.875c1.649-3.537,3.393-6.99,4.325-8.579
		c0.765-1.314,2.139-3.154,4.528-6.082c1.828-2.246,2.808-3.584,4.863-6.643c1.625-2.402,4.134-5.759,5.114-6.822
		c1.123-1.219,3.489-3.345,4.588-4.122c0.526-0.37,1.912-1.29,3.083-2.043c1.159-0.753,2.593-1.78,3.178-2.27
		c1.541-1.29,4.696-4.23,5.807-5.389c1.326-1.398,4.027-4.839,5.448-6.966c1.565-2.33,2.127-3.501,2.222-4.576
		c0.12-1.446-0.096-2.282-1.087-4.277c-1.47-2.951-1.816-4.003-3.107-9.284c-0.872-3.561-1.338-4.72-2.832-7.037
		c-0.944-1.47-1.422-2.378-1.852-3.525c-1.207-3.214-1.888-8.65-1.613-12.856c0.131-1.948,1.123-11.638,1.446-14.135
		c0.167-1.183,0.442-2.21,0.681-2.485c0.311-0.335,0.896-0.239,2.88,0.502c2.76,1.028,3.047,1.195,5.006,3.035
		c1.183,1.099,1.338,1.195,1.792,1.028c0.335-0.108,0.358-0.167,0.562-1.338c0.562-3.274,1.577-6.165,2.688-7.695
		c0.645-0.884,1.183-0.789,2.258,0.37c0.836,0.932,2.473,3.262,3.035,4.349l0.466,0.908l0.621-0.036
		c0.346-0.012,1.183-0.108,1.864-0.203c1.625-0.215,4.361-0.215,5.436,0.012c1.207,0.251,2.605,0.992,3.776,1.971
		c0.55,0.478,1.255,0.98,1.553,1.135c0.789,0.394,2.282,0.848,3.776,1.123c2.055,0.394,3.991,0.92,4.337,1.171
		c0.323,0.251,0.418,0.406,1.195,2.079c0.335,0.729,0.717,1.29,1.255,1.876c1.016,1.099,1.267,1.78,1.267,3.357
		c0,0.932,0.06,1.338,0.311,2.055c0.227,0.681,0.287,1.075,0.263,1.697c-0.024,0.442,0,0.801,0.048,0.801
		c0.239,0,3.501-1.278,4.457-1.733c1.96-0.956,3.704-2.605,4.54-4.301c0.155-0.335,0.502-1.386,0.765-2.354
		c0.526-1.924,1.039-3.274,2.139-5.651c0.944-2.055,1.111-2.521,1.995-5.628c0.418-1.458,1.29-4.122,1.948-5.914
		c1.195-3.262,1.709-4.899,3.19-10.084c1.446-5.054,2.772-10.777,2.868-12.426c0.131-2.043,0.335-2.449,1.434-2.987
		c0.717-0.358,0.669-0.239,0.956-2.27c0.251-1.744,0.478-2.712,0.789-3.298c0.131-0.275,0.848-1.123,1.577-1.9
		c1.338-1.398,1.541-1.709,2.891-4.23c0.956-1.792,1.983-2.545,2.796-2.079c0.287,0.155,0.346,0.143,0.872-0.215
		c0.597-0.394,2.258-1.051,2.963-1.147C478.828,273.991,479.163,274.003,479.33,274.051z"/>
	<path style="fill-rule:evenodd;clip-rule:evenodd;fill:#0F0B0D;" d="M354.977,305.252c0.693,0.705,0.741,1.35,0.526,7.742
		c-0.108,3.071-0.203,4.409-0.394,5.496c-0.311,1.78-1.219,4.528-2.103,6.368c-0.585,1.195-0.681,1.494-0.693,2.115
		c-0.024,1.565,0.191,5.197,0.382,6.273c0.299,1.661,0.263,4.493-0.06,5.974c-0.514,2.306-1.517,5.006-3.238,8.662l-0.741,1.565
		l-0.346,2.497c-0.514,3.74-0.645,5.472-0.574,7.575c0.084,2.103,0.227,2.856,0.944,4.672c0.896,2.306,1.243,4.027,1.768,8.71
		c0.753,6.751,0.86,9.045,0.597,12.617c-0.167,2.198-0.645,6.153-0.956,7.778c-0.872,4.576-3.071,10.729-5.652,15.819
		c-3.656,7.205-4.409,8.698-5.424,10.933c-1.362,2.963-1.541,3.441-2.425,6.428c-1.661,5.675-2.031,7.575-3.166,16.035
		c-0.299,2.234-1.051,7.3-1.685,11.267c-0.621,3.967-1.171,7.647-1.207,8.185c-0.072,1.195,0.239,3.441,0.872,6.141
		c0.37,1.625,1.278,4.827,1.434,5.078c0.024,0.036,0.466-0.108,0.968-0.346c0.502-0.227,1.111-0.454,1.362-0.478
		c0.526-0.072,1.649,0.239,2.378,0.657c2.617,1.505,5.209,6.894,4.158,8.627c-0.191,0.323-1.219,0.86-2.414,1.255
		c-0.848,0.287-1.028,0.299-3.561,0.299c-1.47,0-3.752,0.06-5.09,0.143c-2.951,0.179-3.25,0.131-6.261-0.872
		c-2.473-0.824-3.166-1.159-3.74-1.792c-0.502-0.562-0.621-1.016-0.717-2.676c-0.036-0.729-0.179-2.545-0.323-4.05l-0.263-2.724
		l0.287-1.995c0.251-1.709,0.299-2.414,0.287-5.09c0-3.226-0.179-5.066-0.884-9.081c-0.131-0.729-0.37-2.246-0.538-3.381
		c-0.55-3.728-2.187-10.885-2.903-12.713c-0.191-0.478-0.442-1.171-0.55-1.529c-0.119-0.358-0.239-0.729-0.263-0.824
		c-0.036-0.096-0.275,0.119-0.633,0.562l-0.574,0.729l0.287,1.649c0.394,2.198,0.406,3.776,0.048,5.413
		c-0.263,1.183-0.275,1.386-0.179,3.405c0.06,1.183,0.108,3.31,0.096,4.72c0,2.378-0.024,2.664-0.323,3.883
		c-0.777,3.142-1.362,4.588-2.676,6.536c-0.872,1.302-2.067,2.617-2.664,2.939c-0.801,0.418-1.685,0.335-2.545-0.251
		c-0.502-0.346-0.753-0.442-1.171-0.442c-0.681,0-1.649-0.287-2.043-0.597c-0.167-0.119-0.454-0.526-0.645-0.884
		c-0.227-0.442-0.49-0.741-0.777-0.908c-0.801-0.442-1.482-1.422-1.936-2.748c-0.096-0.299-0.346-1.314-0.562-2.27
		c-0.215-0.956-0.43-1.78-0.478-1.828c-0.048-0.06-0.454,0.812-0.896,1.924c-0.717,1.84-0.92,2.21-2.198,4.098
		c-1.087,1.601-1.804,2.856-3.083,5.413c-1.362,2.7-1.625,3.298-1.422,3.25c0.681-0.203,2.581-0.562,4.074-0.777
		c2.784-0.406,4.493-0.478,9.499-0.37c5.15,0.096,5.114,0.096,7.766,0.956c2.318,0.753,4.875,2.258,5.341,3.142
		c0.275,0.55,0.251,1.709-0.072,2.342c-0.574,1.111-2.007,2.258-4.134,3.322c-1.159,0.585-2.079,0.884-3.871,1.29
		c-1.864,0.406-2.772,0.693-4.72,1.458c-3.764,1.47-6.034,1.685-21.34,2.067c-2.664,0.072-5.054,0.143-5.317,0.179
		c-0.263,0.036-2.258,0.119-4.421,0.179c-2.175,0.072-4.994,0.203-6.273,0.299c-1.278,0.096-4.074,0.287-6.213,0.418
		c-5.018,0.311-9.045,0.645-13.203,1.075c-4.899,0.514-7.038,0.633-11.829,0.645c-4.528,0.012-4.815-0.012-7.468-0.597
		c-1.709-0.382-4.851-1.398-5.759-1.852c-0.382-0.191-0.968-0.645-1.314-1.004c-0.335-0.358-0.693-0.657-0.777-0.657
		s-0.335-0.167-0.574-0.37c-0.992-0.872-1.159-3.095-0.43-5.867c0.812-3.083,1.541-4.851,4.767-11.626
		c2.485-5.233,2.915-6.249,4.6-10.933c1.517-4.23,2.079-6.082,3.071-10.072c1.84-7.492,3.047-10.228,6.703-15.162
		c1.792-2.414,2.425-3.477,3.871-6.548c1.326-2.832,3.883-7.814,4.755-9.308c1.028-1.756,2.485-3.823,5.006-7.085
		c2.844-3.692,3.907-4.947,7.3-8.639c4.935-5.353,9.236-9.475,14.422-13.812c1.278-1.075,3.13-2.652,4.122-3.513
		c4.182-3.656,7.826-6.321,12.008-8.782c1.147-0.681,2.796-1.673,3.656-2.222c0.86-0.538,2.103-1.255,2.76-1.577
		c1.577-0.801,2.234-1.362,4.17-3.561c0.896-1.028,2.652-2.915,3.907-4.206c2.521-2.629,2.605-2.748,4.146-6.356
		c1.529-3.584,1.577-4.254,0.502-9.021c-0.992-4.421-1.063-4.851-1.231-7.241c-0.191-2.772-0.012-6.344,0.502-10.216l0.251-1.936
		l-0.585-0.717c-1.494-1.792-2.21-3.453-2.653-6.117c-0.43-2.593-0.514-3.955-0.43-7.049c0.108-4.038,0.275-5.138,0.908-5.771
		c0.323-0.311,0.418-0.346,0.896-0.287c0.645,0.072,2.629,1.207,6.082,3.489c4.23,2.808,5.986,4.445,7.145,6.715l0.502,0.98
		l0.538-0.06c0.299-0.036,0.812-0.119,1.159-0.167c0.346-0.06,1.661-0.167,2.927-0.251c1.971-0.119,2.629-0.108,4.576,0.06
		c1.243,0.108,2.891,0.191,3.644,0.191c1.29,0.012,1.804,0.06,3.704,0.346c0.43,0.072,1.147,0.131,1.601,0.155l0.824,0.024
		l0.789-0.836c0.526-0.562,1.028-1.278,1.494-2.151c0.956-1.78,1.565-2.605,2.652-3.62s4.038-3.023,5.377-3.656
		c1.29-0.621,3.596-1.458,4.266-1.553C354.571,304.905,354.654,304.929,354.977,305.252L354.977,305.252z"/>
	<path style="fill-rule:evenodd;clip-rule:evenodd;fill:#0F0B0D;" d="M78.26,341.084c0.55,0.299,0.633,0.717,0.55,2.712
		c-0.227,5.197-1.912,11.482-3.68,13.693c-0.275,0.346-0.466,0.657-0.43,0.693c0.036,0.036-0.012,0.323-0.108,0.621
		c-0.335,1.075-0.406,1.589-0.526,3.465c-0.263,4.469,0.681,10.359,2.055,12.773c0.466,0.836,1.434,1.876,2.079,2.258
		c0.681,0.394,1.661,0.502,2.306,0.239c0.275-0.096,1.47-0.43,2.664-0.741c1.207-0.299,2.915-0.777,3.8-1.063
		c3.298-1.075,5.162-1.446,11.16-2.27c5.902-0.812,9.308-1.398,18.305-3.166c5.221-1.028,9.654-1.733,13.49-2.151
		c8.925-0.968,13.92-1.159,19.117-0.729c4.003,0.335,8.161,0.777,10.873,1.159c6.249,0.872,13.956,2.808,20.001,4.994
		c2.246,0.824,10.048,4.266,14.529,6.428c8.579,4.146,14.326,6.38,21.268,8.28c3.465,0.944,8.662,1.135,13.024,0.466
		c2.832-0.43,4.696-1.171,7.826-3.118c5.15-3.19,7.288-4.337,9.248-4.994c2.222-0.753,3.62-0.812,5.257-0.239
		s2.844,1.613,3.513,3.023c0.382,0.801,0.442,1.063,0.478,1.948c0.084,1.948-0.502,3.417-2.091,5.209
		c-2.449,2.748-4.23,4.194-6.643,5.341c-2.27,1.075-7.002,2.366-10.765,2.927c-1.29,0.191-1.924,0.358-2.868,0.741
		c-3.537,1.458-5.341,2.019-8.973,2.796c-3.835,0.812-7.826,1.063-15.724,0.98c-4.827-0.048-5.568-0.084-6.739-0.311
		c-2.151-0.394-5.52-1.362-9.116-2.593c-1.864-0.633-3.393-1.135-3.417-1.111c-0.012,0.024,0.024,1.195,0.084,2.605
		c0.227,4.624-0.143,6.655-2.091,11.542c-1.207,3.035-2.39,5.281-4.11,7.85c-1.613,2.402-2.007,3.74-2.007,6.846
		c0,1.948,0.036,2.318,0.382,3.979c0.466,2.198,1.028,4.003,1.9,5.998c0.86,1.971,2.581,5.305,4.086,7.874
		c1.35,2.294,1.637,2.927,2.079,4.457c0.681,2.342,0.848,3.489,0.86,5.711c0,1.876-0.036,2.246-0.335,3.584
		c-0.538,2.318-1.529,5.186-2.569,7.384c-1.422,2.999-1.804,4.194-2.294,7.312c-0.49,3.035-1.099,4.588-2.21,5.592
		c-1.063,0.98-2.748,1.661-5.556,2.27c-1.434,0.299-1.637,0.323-5.078,0.323c-3.286-0.012-3.68-0.024-4.72-0.275
		c-1.41-0.323-2.569-0.896-3.035-1.494c-0.287-0.358-0.37-0.597-0.406-1.171c-0.048-0.633-0.012-0.812,0.346-1.517
		c0.789-1.541,2.342-2.844,4.027-3.369c0.418-0.131,1.231-0.299,1.816-0.37s1.123-0.203,1.183-0.275
		c0.072-0.084,0.346-0.92,0.609-1.852c0.275-0.944,0.872-2.688,1.338-3.883c0.98-2.533,1.398-4.039,1.494-5.448
		c0.048-0.86,0.024-1.123-0.203-1.721c-0.299-0.789-0.37-0.86-3.692-3.955c-2.067-1.924-2.915-2.593-8.137-6.44
		c-1.326-0.98-2.103-1.649-2.473-2.127c-0.299-0.382-0.574-0.693-0.597-0.693c-0.239,0-0.633,1.697-1.362,5.867
		c-0.801,4.588-0.872,4.899-1.721,7.551c-1.243,3.859-1.924,5.138-4.015,7.563c-1.553,1.816-3.118,3.095-6.978,5.663
		c-3.895,2.593-4.851,3.369-5.771,4.66c-2.569,3.608-4.325,5.556-5.556,6.153c-0.669,0.323-0.812,0.346-3.059,0.43
		c-1.517,0.06-3.071,0.203-4.373,0.418c-1.84,0.287-2.246,0.311-4.361,0.251c-2.115-0.06-2.449-0.096-3.668-0.43
		c-1.852-0.502-2.712-0.968-3.083-1.685c-0.394-0.753-0.215-1.338,0.896-2.987c0.932-1.374,1.386-1.888,2.485-2.76
		c1.135-0.908,2.306-1.458,4.218-1.96c2.593-0.693,4.445-1.613,5.413-2.676c0.251-0.287,0.86-1.147,1.35-1.912
		c0.502-0.765,1.553-2.378,2.342-3.596c2.091-3.19,4.146-7.288,4.911-9.809c0.836-2.736,0.717-4.003-1.004-11.1
		c-1.207-4.982-1.243-5.245-1.243-8.901c0-2.975,0.012-3.154,0.311-4.218l0.299-1.099l-0.789,0.06
		c-3.178,0.275-5.245,0.562-7.539,1.039c-3.608,0.741-9.415,1.9-10.395,2.067c-0.621,0.108-2.055,0.43-3.166,0.705
		c-2.509,0.645-7.121,1.673-8.722,1.936c-0.98,0.167-2.115,0.203-6.333,0.203c-2.832,0.012-5.687-0.048-6.344-0.108
		c-0.669-0.072-1.386-0.108-1.601-0.072c-0.37,0.048-0.382,0.072-0.311,0.526c0.072,0.454-0.514,6.452-0.992,10.192
		c-0.131,0.98-0.346,2.629-0.478,3.644c-0.358,2.748-0.502,5.436-0.609,11.411c-0.096,5.365-0.143,5.938-0.657,8.782
		c-0.096,0.55-0.227,1.733-0.299,2.629c-0.335,4.409-0.502,5.424-1.087,6.691c-0.478,1.028-1.016,1.553-2.151,2.079
		c-2.187,1.016-4.086,1.207-10.383,1.051c-3.823-0.084-4.158-0.119-4.684-0.346c-1.028-0.466-1.183-1.386-0.562-3.345
		c0.789-2.449,1.422-3.453,3.74-5.89c2.545-2.664,2.915-3.68,2.533-6.87c-0.502-4.266-1.183-7.396-2.222-10.252
		c-0.346-0.932-0.848-2.461-1.135-3.405c-0.275-0.944-0.562-1.768-0.621-1.828c-0.06-0.06-0.526,0.621-1.183,1.768
		c-1.314,2.33-2.031,3.429-3.704,5.663c-2.987,4.003-5.054,7.121-7.061,10.598c-0.609,1.075-1.314,2.258-1.565,2.629
		c-0.681,1.051-2.067,2.426-3.441,3.441c-1.422,1.051-1.84,1.589-2.963,3.847c-0.37,0.741-0.848,1.541-1.063,1.792
		c-0.215,0.239-0.585,0.693-0.836,1.004c-1.171,1.458-4.003,2.043-9.774,1.983c-1.96-0.012-3.047,0.036-4.062,0.179
		c-1.446,0.203-1.876,0.167-2.461-0.215c-0.394-0.263-0.753-0.884-0.753-1.302c0-0.884,1.637-3.178,3.417-4.791
		c1.446-1.314,1.78-1.553,3.62-2.641c0.884-0.514,1.852-1.171,2.163-1.446c0.848-0.765,1.398-1.96,2.449-5.293
		c0.502-1.613,1.302-4.003,1.792-5.317c1.613-4.433,3.095-10.228,3.811-14.876c0.609-3.979,0.693-5.15,0.753-10.837l0.06-5.413
		l-0.657-1.099c-0.824-1.398-2.414-4.277-3.107-5.663c-1.912-3.823-4.504-11.446-5.389-15.879c-0.478-2.39-0.633-3.525-1.028-7.408
		c-0.681-6.619-1.362-10.61-2.557-14.995c-0.824-2.987-1.243-4.994-1.792-8.495c-0.777-4.947-1.075-7.874-1.267-12.534
		c-0.096-2.402-0.155-2.975-0.418-3.943c-0.418-1.541-0.717-2.127-1.78-3.525c-1.529-1.995-2.7-4.72-2.7-6.261
		c0-0.621,0.358-2.402,0.657-3.298c0.108-0.335,0.514-1.267,0.896-2.091c0.741-1.601,1.051-2.509,1.422-4.277
		c0.131-0.609,0.37-1.35,0.514-1.661c0.645-1.278,1.41-1.35,4.277-0.418c3.011,0.98,3.584,1.099,5.197,1.111
		c1.314,0,1.553-0.036,2.927-0.442c3.047-0.896,4.731-1.135,6.56-0.896c1.016,0.131,4.05,0.86,5.867,1.41
		c2.187,0.657,3.465,0.884,5.329,0.956l1.816,0.072l0.992-0.717c2.151-1.553,4.086-2.306,9.045-3.549
		C77.484,340.857,77.782,340.821,78.26,341.084L78.26,341.084z"/>
	<path style="fill-rule:evenodd;clip-rule:evenodd;fill:#0F0B0D;" d="M213.06,93.565c0.919-0.356,1.907,0.254,2.69,0.852
		c0.783,0.598,1.719,1.252,2.668,0.986c0.769-0.216,1.321-1.002,2.117-1.072c0.895-0.078,1.616,0.783,2.508,0.893
		c0.694,0.086,1.381-0.317,1.797-0.878c0.416-0.561,0.603-1.259,0.718-1.948c1.274-7.588-3.957-11.902-10.885-12.899
		c-3.323-0.478-6.701-0.358-10.051-0.575c-2.948-0.191-5.974-1.197-6.977-3.976c-0.424-1.175-0.154-2.502,0.381-3.631
		c0.535-1.129,1.316-2.12,1.978-3.18c1.967-3.145,2.237-5.638,1.892-9.331c4.925-5.516,6.423-13.458,4.087-20.473
		c0.58-0.506,0.718-1.359,0.658-2.127c-0.06-0.768-0.279-1.523-0.26-2.293c0.035-1.365,0.873-2.472,0.912-3.838
		c0.04-1.415,0.24-3.018-0.077-4.405c-0.204-0.894-0.716-1.763-1.534-2.179c-0.949-0.482-2.096-0.273-3.107,0.058
		c-2.758,0.901-4.992,2.657-6.777,4.944c-0.731-0.515-1.692-0.578-2.578-0.462c-0.886,0.116-1.748,0.39-2.636,0.485
		c-1.592,0.169-3.179-0.245-4.766-0.455c-0.846-0.112-1.721-0.12-2.563,0.038c-1.266,0.238-2.105,0.582-3.468,0.305
		c-0.894-0.182-1.645-0.731-2.59-0.775c-0.468-0.022-4.552,0.939-4.429,1.058c-2.02-1.948-4.477-3.44-7.138-4.333
		c-1.051-0.353-2.381-0.546-3.119,0.281c-0.583,0.653-0.51,1.645-0.367,2.509c0.511,3.092,1.471,6.109,2.84,8.927
		c1.162,2.392-0.348,6.15-0.352,8.809c-0.002,1.448-0.416,2.03-1.735,2.627c-1.319,0.597-2.826,0.565-4.273,0.506
		c-15.78-0.637-32.11-2.954-46.982,2.359c-2.837,1.014-5.583,2.299-8.121,3.923c-4.318,2.764-6.795,6.071-9.584,10.147
		c-3.149,4.603-6.213,9.324-8.075,14.618c-2.173,6.178-2.551,13.284,0.47,19.095c2.214,4.259,6.096,7.505,10.446,9.534
		c4.35,2.029,9.156,2.916,13.945,3.25c6.079,0.424,12.182-0.014,18.26-0.451c11.972-0.861,23.944-1.723,35.916-2.584
		c5.623-0.405,11.305-0.82,16.686-2.503c2.59-0.81,5.1-1.931,7.372-3.421c1.175-0.771,2.291-1.637,3.307-2.61
		c0.953-0.913,1.785-2.65,2.81-3.362c1.802-1.253,6.148-1.29,8.42-1.81C206.63,93.48,209.858,92.861,213.06,93.565z"/>
</g>
</svg>
